<svg width="452" height="260" viewBox="0 0 452 260" fill="none" xmlns="http://www.w3.org/2000/svg">
<circle cx="22" cy="22" r="1" fill="#666666"/>
<circle cx="22" cy="46" r="1" fill="#666666"/>
<circle cx="22" cy="70" r="1" fill="#666666"/>
<circle cx="22" cy="94" r="1" fill="#666666"/>
<circle cx="22" cy="118" r="1" fill="#666666"/>
<circle cx="22" cy="142" r="1" fill="#666666"/>
<circle cx="22" cy="166" r="1" fill="#666666"/>
<circle cx="22" cy="190" r="1" fill="#666666"/>
<circle cx="22" cy="214" r="1" fill="#666666"/>
<circle cx="22" cy="238" r="1" fill="#666666"/>
<circle cx="94" cy="22" r="1" fill="#666666"/>
<circle cx="94" cy="46" r="1" fill="#666666"/>
<circle cx="94" cy="70" r="1" fill="#666666"/>
<circle cx="94" cy="94" r="1" fill="#666666"/>
<circle cx="94" cy="118" r="1" fill="#666666"/>
<circle cx="94" cy="142" r="1" fill="#666666"/>
<circle cx="94" cy="166" r="1" fill="#666666"/>
<circle cx="94" cy="190" r="1" fill="#666666"/>
<circle cx="94" cy="214" r="1" fill="#666666"/>
<circle cx="94" cy="238" r="1" fill="#666666"/>
<circle cx="166" cy="22" r="1" fill="#666666"/>
<circle cx="166" cy="46" r="1" fill="#666666"/>
<circle cx="166" cy="70" r="1" fill="#666666"/>
<circle cx="166" cy="94" r="1" fill="#666666"/>
<circle cx="166" cy="118" r="1" fill="#666666"/>
<circle cx="166" cy="142" r="1" fill="#666666"/>
<circle cx="166" cy="166" r="1" fill="#666666"/>
<circle cx="166" cy="190" r="1" fill="#666666"/>
<circle cx="166" cy="214" r="1" fill="#666666"/>
<circle cx="166" cy="238" r="1" fill="#666666"/>
<circle cx="238" cy="22" r="1" fill="#666666"/>
<circle cx="238" cy="46" r="1" fill="#666666"/>
<circle cx="238" cy="70" r="1" fill="#666666"/>
<circle cx="238" cy="94" r="1" fill="#666666"/>
<circle cx="238" cy="118" r="1" fill="#666666"/>
<circle cx="238" cy="142" r="1" fill="#666666"/>
<circle cx="238" cy="166" r="1" fill="#666666"/>
<circle cx="238" cy="190" r="1" fill="#666666"/>
<circle cx="238" cy="214" r="1" fill="#666666"/>
<circle cx="238" cy="238" r="1" fill="#666666"/>
<circle cx="310" cy="22" r="1" fill="#666666"/>
<circle cx="310" cy="46" r="1" fill="#666666"/>
<circle cx="310" cy="70" r="1" fill="#666666"/>
<circle cx="310" cy="94" r="1" fill="#666666"/>
<circle cx="310" cy="118" r="1" fill="#666666"/>
<circle cx="310" cy="142" r="1" fill="#666666"/>
<circle cx="310" cy="166" r="1" fill="#666666"/>
<circle cx="310" cy="190" r="1" fill="#666666"/>
<circle cx="310" cy="214" r="1" fill="#666666"/>
<circle cx="310" cy="238" r="1" fill="#666666"/>
<circle cx="382" cy="22" r="1" fill="#666666"/>
<circle cx="382" cy="46" r="1" fill="#666666"/>
<circle cx="382" cy="70" r="1" fill="#666666"/>
<circle cx="382" cy="94" r="1" fill="#666666"/>
<circle cx="382" cy="118" r="1" fill="#666666"/>
<circle cx="382" cy="142" r="1" fill="#666666"/>
<circle cx="382" cy="166" r="1" fill="#666666"/>
<circle cx="382" cy="190" r="1" fill="#666666"/>
<circle cx="382" cy="214" r="1" fill="#666666"/>
<circle cx="382" cy="238" r="1" fill="#666666"/>
<circle cx="70" cy="22" r="1" fill="#666666"/>
<circle cx="70" cy="46" r="1" fill="#666666"/>
<circle cx="70" cy="70" r="1" fill="#666666"/>
<circle cx="70" cy="94" r="1" fill="#666666"/>
<circle cx="70" cy="118" r="1" fill="#666666"/>
<circle cx="70" cy="142" r="1" fill="#666666"/>
<circle cx="70" cy="166" r="1" fill="#666666"/>
<circle cx="70" cy="190" r="1" fill="#666666"/>
<circle cx="70" cy="214" r="1" fill="#666666"/>
<circle cx="70" cy="238" r="1" fill="#666666"/>
<circle cx="142" cy="22" r="1" fill="#666666"/>
<circle cx="142" cy="46" r="1" fill="#666666"/>
<circle cx="142" cy="70" r="1" fill="#666666"/>
<circle cx="142" cy="94" r="1" fill="#666666"/>
<circle cx="142" cy="118" r="1" fill="#666666"/>
<circle cx="142" cy="142" r="1" fill="#666666"/>
<circle cx="142" cy="166" r="1" fill="#666666"/>
<circle cx="142" cy="190" r="1" fill="#666666"/>
<circle cx="142" cy="214" r="1" fill="#666666"/>
<circle cx="142" cy="238" r="1" fill="#666666"/>
<circle cx="214" cy="22" r="1" fill="#666666"/>
<circle cx="214" cy="46" r="1" fill="#666666"/>
<circle cx="214" cy="70" r="1" fill="#666666"/>
<circle cx="214" cy="94" r="1" fill="#666666"/>
<circle cx="214" cy="118" r="1" fill="#666666"/>
<circle cx="214" cy="142" r="1" fill="#666666"/>
<circle cx="214" cy="166" r="1" fill="#666666"/>
<circle cx="214" cy="190" r="1" fill="#666666"/>
<circle cx="214" cy="214" r="1" fill="#666666"/>
<circle cx="214" cy="238" r="1" fill="#666666"/>
<circle cx="286" cy="22" r="1" fill="#666666"/>
<circle cx="286" cy="46" r="1" fill="#666666"/>
<circle cx="286" cy="70" r="1" fill="#666666"/>
<circle cx="286" cy="94" r="1" fill="#666666"/>
<circle cx="286" cy="118" r="1" fill="#666666"/>
<circle cx="286" cy="142" r="1" fill="#666666"/>
<circle cx="286" cy="166" r="1" fill="#666666"/>
<circle cx="286" cy="190" r="1" fill="#666666"/>
<circle cx="286" cy="214" r="1" fill="#666666"/>
<circle cx="286" cy="238" r="1" fill="#666666"/>
<circle cx="358" cy="22" r="1" fill="#666666"/>
<circle cx="358" cy="46" r="1" fill="#666666"/>
<circle cx="358" cy="70" r="1" fill="#666666"/>
<circle cx="358" cy="94" r="1" fill="#666666"/>
<circle cx="358" cy="118" r="1" fill="#666666"/>
<circle cx="358" cy="142" r="1" fill="#666666"/>
<circle cx="358" cy="166" r="1" fill="#666666"/>
<circle cx="358" cy="190" r="1" fill="#666666"/>
<circle cx="358" cy="214" r="1" fill="#666666"/>
<circle cx="358" cy="238" r="1" fill="#666666"/>
<circle cx="430" cy="22" r="1" fill="#666666"/>
<circle cx="430" cy="46" r="1" fill="#666666"/>
<circle cx="430" cy="70" r="1" fill="#666666"/>
<circle cx="430" cy="94" r="1" fill="#666666"/>
<circle cx="430" cy="118" r="1" fill="#666666"/>
<circle cx="430" cy="142" r="1" fill="#666666"/>
<circle cx="430" cy="166" r="1" fill="#666666"/>
<circle cx="430" cy="190" r="1" fill="#666666"/>
<circle cx="430" cy="214" r="1" fill="#666666"/>
<circle cx="430" cy="238" r="1" fill="#666666"/>
<circle cx="46" cy="22" r="1" fill="#666666"/>
<circle cx="46" cy="46" r="1" fill="#666666"/>
<circle cx="46" cy="70" r="1" fill="#666666"/>
<circle cx="46" cy="94" r="1" fill="#666666"/>
<circle cx="46" cy="118" r="1" fill="#666666"/>
<circle cx="46" cy="142" r="1" fill="#666666"/>
<circle cx="46" cy="166" r="1" fill="#666666"/>
<circle cx="46" cy="190" r="1" fill="#666666"/>
<circle cx="46" cy="214" r="1" fill="#666666"/>
<circle cx="46" cy="238" r="1" fill="#666666"/>
<circle cx="118" cy="22" r="1" fill="#666666"/>
<circle cx="118" cy="46" r="1" fill="#666666"/>
<circle cx="118" cy="70" r="1" fill="#666666"/>
<circle cx="118" cy="94" r="1" fill="#666666"/>
<circle cx="118" cy="118" r="1" fill="#666666"/>
<circle cx="118" cy="142" r="1" fill="#666666"/>
<circle cx="118" cy="166" r="1" fill="#666666"/>
<circle cx="118" cy="190" r="1" fill="#666666"/>
<circle cx="118" cy="214" r="1" fill="#666666"/>
<circle cx="118" cy="238" r="1" fill="#666666"/>
<circle cx="190" cy="22" r="1" fill="#666666"/>
<circle cx="190" cy="46" r="1" fill="#666666"/>
<circle cx="190" cy="70" r="1" fill="#666666"/>
<circle cx="190" cy="94" r="1" fill="#666666"/>
<circle cx="190" cy="118" r="1" fill="#666666"/>
<circle cx="190" cy="142" r="1" fill="#666666"/>
<circle cx="190" cy="166" r="1" fill="#666666"/>
<circle cx="190" cy="190" r="1" fill="#666666"/>
<circle cx="190" cy="214" r="1" fill="#666666"/>
<circle cx="190" cy="238" r="1" fill="#666666"/>
<circle cx="262" cy="22" r="1" fill="#666666"/>
<circle cx="262" cy="46" r="1" fill="#666666"/>
<circle cx="262" cy="70" r="1" fill="#666666"/>
<circle cx="262" cy="94" r="1" fill="#666666"/>
<circle cx="262" cy="118" r="1" fill="#666666"/>
<circle cx="262" cy="142" r="1" fill="#666666"/>
<circle cx="262" cy="166" r="1" fill="#666666"/>
<circle cx="262" cy="190" r="1" fill="#666666"/>
<circle cx="262" cy="214" r="1" fill="#666666"/>
<circle cx="262" cy="238" r="1" fill="#666666"/>
<circle cx="334" cy="22" r="1" fill="#666666"/>
<circle cx="334" cy="46" r="1" fill="#666666"/>
<circle cx="334" cy="70" r="1" fill="#666666"/>
<circle cx="334" cy="94" r="1" fill="#666666"/>
<circle cx="334" cy="118" r="1" fill="#666666"/>
<circle cx="334" cy="142" r="1" fill="#666666"/>
<circle cx="334" cy="166" r="1" fill="#666666"/>
<circle cx="334" cy="190" r="1" fill="#666666"/>
<circle cx="334" cy="214" r="1" fill="#666666"/>
<circle cx="334" cy="238" r="1" fill="#666666"/>
<circle cx="406" cy="22" r="1" fill="#666666"/>
<circle cx="406" cy="46" r="1" fill="#666666"/>
<circle cx="406" cy="70" r="1" fill="#666666"/>
<circle cx="406" cy="94" r="1" fill="#666666"/>
<circle cx="406" cy="118" r="1" fill="#666666"/>
<circle cx="406" cy="142" r="1" fill="#666666"/>
<circle cx="406" cy="166" r="1" fill="#666666"/>
<circle cx="406" cy="190" r="1" fill="#666666"/>
<circle cx="406" cy="214" r="1" fill="#666666"/>
<circle cx="406" cy="238" r="1" fill="#666666"/>
</svg>
